<?xml version="1.0" encoding="UTF-8" standalone="no"?><!-- Generator: Gravit.io --><svg xmlns="http://www.w3.org/2000/svg" xmlns:xlink="http://www.w3.org/1999/xlink" style="isolation:isolate" viewBox="0 314.888529 293 139.222942"><g><g><path d=" M 36.891 406.993 C 34.64 402.042 36.315 402.204 29.756 398.029 C 23.197 393.854 24.85 397.22 20.884 392.72 C 17.341 388.699 16.615 389.11 13.572 390.471 C 13.394 390.55 13.216 390.627 13.041 390.707 C 7.961 393.002 4.332 395.801 2.535 403.609 C 0.675 411.687 -3.13 416.324 4.966 420.487 C 13.061 424.65 18.015 419.621 18.084 428.836 C 18.153 438.051 37.711 408.796 36.891 406.993 Z " fill="rgb(134,86,43)"/><path d=" M 25.728 379.428 C 24.844 384.794 23.542 383.728 26.668 390.847 C 29.794 397.966 30.294 394.249 31.084 400.195 C 31.791 405.507 32.622 405.57 35.908 406.133 C 36.101 406.166 36.291 406.201 36.48 406.233 C 41.979 407.153 48.439 379.442 53.51 371.747 C 58.581 364.052 57.925 360.86 49.101 363.783 C 40.278 366.705 42.922 363.39 38.645 360.111 C 34.367 356.833 32.968 354.071 28.531 360.804 C 24.094 367.537 30.209 369.199 28.386 373.585 C 27.343 376.095 26.051 377.474 25.728 379.428 Z " fill="rgb(134,86,43)"/><path d=" M 112.894 346.641 C 112.812 340.887 114.297 341.682 109.916 335.063 C 105.534 328.444 105.703 332.402 103.853 326.445 C 102.2 321.122 101.362 321.253 97.996 321.446 C 97.799 321.457 97.603 321.466 97.409 321.478 C 91.78 321.825 87.29 323.219 82.47 330.267 C 77.483 337.558 72.087 340.705 77.894 347.894 C 83.702 355.084 90.32 351.984 86.658 361.132 C 82.995 370.28 112.923 348.736 112.894 346.641 Z " fill="rgb(134,86,43)"/><path d=" M 189.947 340.15 C 189.866 334.396 191.351 335.191 186.969 328.572 C 182.588 321.954 182.757 325.911 180.907 319.954 C 179.254 314.631 178.416 314.762 175.049 314.955 C 174.852 314.967 174.657 314.976 174.463 314.988 C 168.834 315.334 164.344 316.728 159.523 323.776 C 154.536 331.067 149.14 334.214 154.948 341.404 C 160.755 348.593 187.325 351.778 188.352 346.816 C 188.939 343.976 189.977 342.246 189.947 340.15 Z " fill="rgb(134,86,43)"/><path d=" M 236.53 343.712 C 231.107 341.284 232.438 340.263 224.507 341.418 C 216.576 342.572 220.351 344.138 214.039 343.249 C 208.399 342.456 208.191 343.284 207.043 346.467 C 206.975 346.653 206.907 346.837 206.841 347.02 C 204.943 352.352 220.236 377.708 229.265 375.489 C 238.295 373.271 232.621 366.814 239.745 374.164 C 246.869 381.513 250.296 381.755 248.774 371.945 C 247.251 362.136 250.242 365.771 254.381 362.353 C 258.521 358.934 261.629 358.297 255.396 351.866 C 249.163 345.435 246.388 351.183 242.144 348.08 C 239.716 346.304 238.505 344.597 236.53 343.712 Z " fill="rgb(134,86,43)"/><path d=" M 286.125 413.156 C 285.846 407.725 287.346 408.489 282.774 402.2 C 278.202 395.911 278.506 399.648 276.467 394.008 C 274.644 388.968 273.818 389.084 270.488 389.234 C 270.293 389.243 270.1 389.25 269.908 389.259 C 264.34 389.532 259.937 390.805 255.402 397.411 C 250.71 404.245 272.745 432.49 277.623 434.782 C 282.5 437.074 284.456 439.474 287.356 431.95 C 290.256 424.426 283.927 424.105 284.774 419.432 C 285.258 416.757 286.227 415.134 286.125 413.156 Z " fill="rgb(97,155,21)"/><g><circle vector-effect="non-scaling-stroke" cx="126.35217317609526" cy="340.70862245864464" r="24.574794739008993" fill="rgb(211,35,12)"/><circle vector-effect="non-scaling-stroke" cx="128.40007273767935" cy="342.75652202022866" r="18.431096054256756" fill="rgb(247,98,62)"/></g><path d=" M 267.145 408.897 C 263.662 399.077 276.841 410.913 280.777 405.825 C 282.888 398.146 278.676 398.107 277.897 389.746 C 276.831 378.322 269.863 380.17 261.141 383.39 C 252.418 386.609 250.446 379.634 245.638 387.467 C 243.768 390.515 271.567 421.364 267.145 408.897 Z " fill="rgb(134,86,43)"/><path d=" M 49.969 351.981 C 45.001 354.195 45.175 352.521 40.951 359.049 C 36.727 365.577 40.105 363.949 35.575 367.881 C 31.529 371.393 31.933 372.122 33.271 375.176 C 33.35 375.355 33.425 375.533 33.503 375.708 C 35.76 380.806 38.532 384.456 46.327 386.312 C 54.39 388.232 58.998 392.071 63.222 384.008 C 67.446 375.944 62.454 370.952 71.67 370.952 C 80.885 370.952 83.189 368.649 75.893 362.889 C 68.598 357.129 72.821 357.513 73.205 352.137 C 73.589 346.762 75.125 344.074 67.062 344.074 C 58.998 344.074 60.976 350.094 56.31 350.985 C 53.64 351.495 51.777 351.175 49.969 351.981 Z " fill="rgb(97,155,21)"/><path d=" M 6.867 416.93 C 4.075 421.597 3.255 420.128 3.551 427.897 C 3.847 435.666 5.675 432.393 4.229 438.214 C 2.937 443.414 3.687 443.778 6.537 445.508 C 6.704 445.609 6.868 445.711 7.033 445.81 C 11.81 448.684 16.176 450.077 23.621 447.115 C 31.323 444.051 43.631 411.473 34.351 410.953 C 25.07 410.434 28.747 408.32 25.971 403.701 C 23.195 399.081 22.907 395.999 16.309 400.634 C 9.71 405.269 14.789 409.059 11.484 412.47 C 9.592 414.422 7.884 415.231 6.867 416.93 Z " fill="rgb(97,155,21)"/><path d=" M 125.072 336.869 C 125.112 336.681 128.635 333.083 128.676 332.893 C 129.376 329.643 129.475 328.819 134.75 328.262 C 140.655 327.639 137.008 327.041 144.174 324.129 C 151.339 321.216 150.229 322.481 155.489 323.507 C 157.404 323.881 158.71 325.203 161.142 326.308 C 161.213 326.34 161.283 326.37 161.353 326.396 C 161.414 326.37 161.475 326.344 161.537 326.318 C 163.493 325.476 164.495 325.01 165.892 325.85 C 167.889 325.011 170.088 324.192 173.755 326.801 C 178.029 329.843 178.249 331.447 176.908 333.393 C 177.146 333.536 177.398 333.693 177.664 333.862 C 184.192 338.011 182.518 337.84 184.732 342.72 C 185.538 344.497 185.218 346.327 185.728 348.95 C 186.619 353.533 123.923 342.307 125.072 336.869 Z " fill="rgb(97,155,21)"/><path d=" M 172.696 346.135 C 172.735 345.948 176.259 342.35 176.3 342.16 C 177 338.91 177.098 338.085 182.374 337.528 C 188.279 336.905 184.632 336.308 191.797 333.395 C 198.963 330.483 197.853 331.748 203.113 332.774 C 205.028 333.147 206.333 334.469 208.766 335.574 C 208.837 335.607 208.907 335.637 208.976 335.663 C 209.037 335.637 209.099 335.611 209.16 335.584 C 211.116 334.742 212.119 334.276 213.516 335.117 C 215.513 334.278 217.712 333.458 221.378 336.067 C 225.652 339.109 225.873 340.713 224.532 342.659 C 224.769 342.803 225.022 342.959 225.288 343.128 C 231.815 347.277 230.141 347.107 232.355 351.987 C 233.161 353.763 232.841 355.594 233.351 358.216 C 234.242 362.799 171.547 351.574 172.696 346.135 Z " fill="rgb(97,155,21)"/><path d=" M 127.892 345.537 C 118.461 336.776 120.043 342.476 115.02 334.197 C 110.532 326.8 109.188 327.148 103.678 328.061 C 103.356 328.115 103.036 328.165 102.718 328.218 C 93.514 329.78 86.539 332.645 80.878 343.759 C 75.021 355.257 67.124 360.83 79.104 370.148 C 91.083 379.467 137.323 354.297 127.892 345.537 Z " fill="rgb(130,175,66)"/><path d=" M 268.403 403.698 C 271.806 396.182 276.196 392.411 269.894 386.739 C 263.593 381.066 258.096 384.992 260.029 375.981 C 261.963 366.971 260.393 364.278 253.728 370.309 C 247.063 376.34 248.291 372.284 243.58 370.88 C 238.869 369.476 236.795 367.461 235.103 375.345 C 233.411 383.229 265.113 410.965 268.403 403.698 Z " fill="rgb(130,175,66)"/><path d=" M 16.941 405.442 C 18.293 410.813 16.519 410.255 22.694 415.9 C 28.868 421.545 40.081 397.639 42.015 388.628 C 43.949 379.618 41.94 376.831 34.179 382.627 C 26.418 388.423 27.72 384.382 21.985 382.759 C 16.251 381.136 13.666 379.01 11.974 386.894 C 10.282 394.778 17.209 394.242 17.194 399.011 C 17.185 401.739 16.448 403.487 16.941 405.442 Z " fill="rgb(130,175,66)"/><g><path d=" M 272.777 413.153 C 283.938 413.153 293 421.412 293 431.584 C 293 441.757 283.938 450.015 272.777 450.015 C 261.616 450.015 252.554 441.757 252.554 431.584 C 252.554 421.412 261.616 413.153 272.777 413.153 Z " fill="rgb(211,35,12)"/><path d=" M 271.092 419.297 C 279.463 419.297 286.259 425.491 286.259 433.12 C 286.259 440.749 279.463 446.943 271.092 446.943 C 262.721 446.943 255.924 440.749 255.924 433.12 C 255.924 425.491 262.721 419.297 271.092 419.297 Z " fill="rgb(247,98,62)"/></g><g><path d=" M 245.642 356.836 C 256.804 356.836 265.865 365.897 265.865 377.059 C 265.865 388.22 256.804 397.282 245.642 397.282 C 234.481 397.282 225.419 388.22 225.419 377.059 C 225.419 365.897 234.481 356.836 245.642 356.836 Z " fill="rgb(211,35,12)"/><path d=" M 243.957 363.577 C 252.328 363.577 259.124 370.373 259.124 378.744 C 259.124 387.115 252.328 393.911 243.957 393.911 C 235.586 393.911 228.79 387.115 228.79 378.744 C 228.79 370.373 235.586 363.577 243.957 363.577 Z " fill="rgb(247,98,62)"/></g><g><circle vector-effect="non-scaling-stroke" cx="187.78916002361765" cy="349.41219559537694" r="24.57479473900898" fill="rgb(211,35,12)"/><circle vector-effect="non-scaling-stroke" cx="189.83705958520167" cy="351.46009515696113" r="18.431096054256756" fill="rgb(247,98,62)"/></g><g><circle vector-effect="non-scaling-stroke" cx="75.6666590268891" cy="359.1397185129014" r="24.574794739008993" fill="rgb(211,35,12)"/><circle vector-effect="non-scaling-stroke" cx="77.71455858847308" cy="361.1876180744854" r="18.431096054256745" fill="rgb(247,98,62)"/></g><g><circle vector-effect="non-scaling-stroke" cx="30.868856117237424" cy="426.9763914903742" r="24.574794739008993" fill="rgb(211,35,12)"/><circle vector-effect="non-scaling-stroke" cx="32.91675567882144" cy="429.0242910519583" r="18.43109605425675" fill="rgb(247,98,62)"/></g><g><path d=" M 41.154 367.54 L 55.907 352.607 L 59.025 355.689 L 44.272 370.621 L 41.154 367.54 Z " fill="rgb(249,221,12)"/><path d=" M 62.677 344.685 L 83.641 343.617 L 83.825 347.228 L 62.861 348.296 L 62.677 344.685 Z " fill="rgb(249,221,12)"/><path d=" M 27.726 380.455 L 48.715 380.735 L 48.667 384.35 L 27.678 384.07 L 27.726 380.455 Z " fill="rgb(249,221,12)"/><path d=" M 18.288 406.702 L 39.481 389.912 L 41.726 392.747 L 20.533 409.536 L 18.288 406.702 Z " fill="rgb(249,221,12)"/><path d=" M 106.83 334.162 L 125.334 324.704 L 126.98 327.924 L 108.476 337.381 L 106.83 334.162 Z " fill="rgb(249,221,12)"/><path d=" M 137.595 320.684 L 158.372 320.32 L 158.435 323.935 L 137.658 324.299 L 137.595 320.684 Z " fill="rgb(249,221,12)"/><path d=" M 181.873 329.601 L 199.115 341.2 L 197.097 344.2 L 179.855 332.601 L 181.873 329.601 Z " fill="rgb(249,221,12)"/><path d=" M 205.532 331.544 L 223.858 341.945 L 222.073 345.09 L 203.747 334.688 L 205.532 331.544 Z " fill="rgb(249,221,12)"/><path d=" M 224.225 353.178 L 244.69 358.198 L 243.829 361.71 L 223.364 356.69 L 224.225 353.178 Z " fill="rgb(249,221,12)"/><path d=" M 250.197 376.244 L 269.47 386.864 L 267.725 390.031 L 248.452 379.411 L 250.197 376.244 Z " fill="rgb(249,221,12)"/><path d=" M 263.556 403.163 L 285.101 407.635 L 284.366 411.175 L 262.821 406.704 L 263.556 403.163 Z " fill="rgb(249,221,12)"/></g></g><path d=" M 279.961 454.111 L 17.702 454.111 C 15.254 454.111 12.854 452.671 13.526 448.543 C 23.609 383.232 79.611 335.077 147.727 335.077 C 216.715 335.077 273.597 385.031 282.601 451.567 C 282.888 453.559 280.987 454.129 279.961 454.111 Z " fill="rgb(217,172,85)"/><g><g><circle vector-effect="non-scaling-stroke" cx="103.0944304896444" cy="413.20275544928427" r="17.10509270043444" fill="rgb(0,0,0)"/><circle vector-effect="non-scaling-stroke" cx="97.56042991009248" cy="409.0774095627091" r="6.137709733685227" fill="rgb(255,255,255)"/><circle vector-effect="non-scaling-stroke" cx="109.25382672368951" cy="418.1623490435382" r="2.847860327827931" fill="rgb(255,255,255)"/></g><g><circle vector-effect="non-scaling-stroke" cx="190.642136747364" cy="413.20275544928427" r="17.105092700434426" fill="rgb(0,0,0)"/><circle vector-effect="non-scaling-stroke" cx="185.108136167812" cy="409.0774095627091" r="6.137709733685227" fill="rgb(255,255,255)"/><circle vector-effect="non-scaling-stroke" cx="196.80153298140903" cy="418.1623490435382" r="2.847860327827931" fill="rgb(255,255,255)"/></g></g><path d=" M 163.202 427.122 C 163.152 437.198 155.687 445.361 146.5 445.361 C 137.313 445.361 129.848 437.198 129.798 427.122 C 136.324 433.559 156.1 433.738 163.202 427.122 Z " fill="rgb(0,0,0)"/><path d=" M 144.831 445.255 C 140.837 444.834 137.259 442.852 134.603 439.87 C 135.661 438.423 137.372 437.489 139.3 437.489 C 142.532 437.489 145.156 440.113 145.156 443.345 C 145.156 444.015 145.043 444.658 144.831 445.255 Z " fill="rgb(211,35,12)"/></g></svg>