<?xml version="1.0" encoding="UTF-8" standalone="no"?><!-- Generator: Gravit.io --><svg xmlns="http://www.w3.org/2000/svg" xmlns:xlink="http://www.w3.org/1999/xlink" style="isolation:isolate" viewBox="405.600553 248.0625 65.399447 42.875977"><path d=" M 416.511 263.199 L 413.679 263.199 L 413.679 263.199 Q 410.261 263.199 410.261 259.781 L 410.261 259.781 L 410.261 258.707 L 412.117 257.828 L 412.214 257.828 L 412.214 259.781 L 412.214 259.781 Q 412.214 261.441 413.679 261.441 L 413.679 261.441 L 416.511 261.441 L 416.511 261.441 Q 417.976 261.441 417.976 259.781 L 417.976 259.781 L 417.976 250.23 L 412.38 250.23 L 412.38 250.133 L 413.171 248.453 L 419.929 248.453 L 419.929 259.781 L 419.929 259.781 Q 419.929 263.199 416.511 263.199 L 416.511 263.199 L 416.511 263.199 Z  M 433.281 263.199 L 430.253 263.199 L 430.253 263.199 Q 426.835 263.199 426.835 259.781 L 426.835 259.781 L 426.835 248.941 L 428.691 248.063 L 428.789 248.063 L 428.789 259.781 L 428.789 259.781 Q 428.789 261.441 430.253 261.441 L 430.253 261.441 L 433.281 261.441 L 433.281 261.441 Q 434.746 261.441 434.746 259.781 L 434.746 259.781 L 434.746 248.941 L 436.601 248.063 L 436.699 248.063 L 436.699 259.781 L 436.699 259.781 Q 436.699 263.199 433.281 263.199 L 433.281 263.199 L 433.281 263.199 Z  M 449.66 263.199 L 446.632 263.199 L 446.632 263.199 Q 443.214 263.199 443.214 259.781 L 443.214 259.781 L 443.214 258.707 L 445.07 257.828 L 445.167 257.828 L 445.167 259.781 L 445.167 259.781 Q 445.167 261.441 446.632 261.441 L 446.632 261.441 L 449.66 261.441 L 449.66 261.441 Q 451.124 261.441 451.124 259.781 L 451.124 259.781 L 451.124 257.73 L 451.124 257.73 Q 451.124 256.07 449.66 256.07 L 449.66 256.07 L 447.023 256.07 L 447.023 256.07 Q 444.093 256.07 444.093 253.141 L 444.093 253.141 L 444.093 251.383 L 444.093 251.383 Q 444.093 248.453 447.023 248.453 L 447.023 248.453 L 449.269 248.453 L 449.269 248.453 Q 452.199 248.453 452.199 251.383 L 452.199 251.383 L 452.199 251.9 L 450.343 252.779 L 450.246 252.779 L 450.246 251.383 L 450.246 251.383 Q 450.246 250.211 449.269 250.211 L 449.269 250.211 L 447.023 250.211 L 447.023 250.211 Q 446.046 250.211 446.046 251.383 L 446.046 251.383 L 446.046 253.141 L 446.046 253.141 Q 446.046 254.313 447.023 254.313 L 447.023 254.313 L 449.66 254.313 L 449.66 254.313 Q 453.078 254.313 453.078 257.73 L 453.078 257.73 L 453.078 259.781 L 453.078 259.781 Q 453.078 263.199 449.66 263.199 L 449.66 263.199 L 449.66 263.199 Z  M 460.501 263.59 L 460.404 263.59 L 460.404 250.23 L 456.224 250.23 L 456.224 250.133 L 457.015 248.453 L 466.537 248.453 L 466.537 248.551 L 465.746 250.23 L 462.357 250.23 L 462.357 262.711 L 460.501 263.59 L 460.501 263.59 Z  M 410.851 286.388 L 410.753 286.388 L 410.753 271.739 L 411.789 271.251 L 417.98 271.251 L 417.98 271.349 L 417.189 273.028 L 412.707 273.028 L 412.707 277.735 L 417.98 277.735 L 417.98 277.833 L 417.189 279.513 L 412.707 279.513 L 412.707 285.509 L 410.851 286.388 L 410.851 286.388 L 410.851 286.388 Z  M 429.757 285.997 L 421.691 285.997 L 421.691 271.739 L 422.726 271.251 L 428.917 271.251 L 428.917 271.349 L 428.126 273.028 L 423.644 273.028 L 423.644 277.735 L 428.917 277.735 L 428.917 277.833 L 428.126 279.513 L 423.644 279.513 L 423.644 284.22 L 430.548 284.22 L 430.548 284.317 L 429.757 285.997 L 429.757 285.997 L 429.757 285.997 Z  M 434.943 274.669 L 434.943 277.735 L 440.9 277.735 L 440.9 274.669 L 440.9 274.669 Q 440.9 273.009 439.435 273.009 L 439.435 273.009 L 436.408 273.009 L 436.408 273.009 Q 434.943 273.009 434.943 274.669 L 434.943 274.669 L 434.943 274.669 L 434.943 274.669 Z  M 452.814 285.997 L 449.787 285.997 L 449.787 285.997 Q 446.369 285.997 446.369 282.579 L 446.369 282.579 L 446.369 281.505 L 448.224 280.626 L 448.322 280.626 L 448.322 282.579 L 448.322 282.579 Q 448.322 284.239 449.787 284.239 L 449.787 284.239 L 452.814 284.239 L 452.814 284.239 Q 454.279 284.239 454.279 282.579 L 454.279 282.579 L 454.279 280.528 L 454.279 280.528 Q 454.279 278.868 452.814 278.868 L 452.814 278.868 L 450.177 278.868 L 450.177 278.868 Q 447.248 278.868 447.248 275.938 L 447.248 275.938 L 447.248 274.181 L 447.248 274.181 Q 447.248 271.251 450.177 271.251 L 450.177 271.251 L 452.423 271.251 L 452.423 271.251 Q 455.353 271.251 455.353 274.181 L 455.353 274.181 L 455.353 274.698 L 453.498 275.577 L 453.4 275.577 L 453.4 274.181 L 453.4 274.181 Q 453.4 273.009 452.423 273.009 L 452.423 273.009 L 450.177 273.009 L 450.177 273.009 Q 449.201 273.009 449.201 274.181 L 449.201 274.181 L 449.201 275.938 L 449.201 275.938 Q 449.201 277.11 450.177 277.11 L 450.177 277.11 L 452.814 277.11 L 452.814 277.11 Q 456.232 277.11 456.232 280.528 L 456.232 280.528 L 456.232 282.579 L 456.232 282.579 Q 456.232 285.997 452.814 285.997 L 452.814 285.997 L 452.814 285.997 L 452.814 285.997 Z  M 460.656 286.388 L 460.558 286.388 L 460.558 273.028 L 456.378 273.028 L 456.378 272.931 L 457.169 271.251 L 466.691 271.251 L 466.691 271.349 L 465.9 273.028 L 462.511 273.028 L 462.511 285.509 L 460.656 286.388 L 460.656 286.388 L 460.656 286.388 Z  M 433.087 286.388 L 432.99 286.388 L 432.99 274.669 L 432.99 274.669 Q 432.99 271.251 436.408 271.251 L 436.408 271.251 L 439.435 271.251 L 439.435 271.251 Q 442.853 271.251 442.853 274.669 L 442.853 274.669 L 442.853 285.509 L 440.998 286.388 L 440.9 286.388 L 440.9 279.513 L 434.943 279.513 L 434.943 285.509 L 433.087 286.388 L 433.087 286.388 L 433.087 286.388 Z  M 405.601 266.798 L 471 266.798 L 471 290.938 L 405.601 290.938 L 405.601 266.798 L 405.601 266.798 Z " fill-rule="evenodd" fill="rgb(169,104,176)"/></svg>