<?xml version="1.0" encoding="UTF-8" standalone="no"?><!-- Generator: Gravit.io --><svg xmlns="http://www.w3.org/2000/svg" xmlns:xlink="http://www.w3.org/1999/xlink" style="isolation:isolate" viewBox="438.170581 386 73.658837 35"><g><g><path d=" M 447.445 409.155 C 446.879 407.91 447.3 407.951 445.651 406.901 C 444.002 405.852 444.418 406.698 443.421 405.566 C 442.53 404.556 442.348 404.659 441.582 405.001 C 441.538 405.021 441.493 405.04 441.449 405.06 C 440.172 405.637 439.26 406.341 438.808 408.304 C 438.34 410.335 437.384 411.5 439.419 412.547 C 441.454 413.593 442.699 412.329 442.717 414.646 C 442.734 416.963 447.651 409.608 447.445 409.155 Z " fill="rgb(134,86,43)"/><path d=" M 444.639 402.225 C 444.416 403.574 444.089 403.306 444.875 405.096 C 445.661 406.885 445.786 405.951 445.985 407.446 C 446.163 408.781 446.372 408.797 447.198 408.939 C 447.246 408.947 447.294 408.956 447.342 408.963 C 448.724 409.195 450.348 402.228 451.623 400.294 C 452.898 398.359 452.733 397.557 450.514 398.292 C 448.296 399.027 448.961 398.193 447.886 397.369 C 446.81 396.545 446.459 395.85 445.343 397.543 C 444.228 399.236 445.765 399.653 445.307 400.756 C 445.045 401.387 444.72 401.734 444.639 402.225 Z " fill="rgb(134,86,43)"/><path d=" M 466.552 393.982 C 466.531 392.536 466.904 392.736 465.803 391.072 C 464.701 389.408 464.744 390.403 464.279 388.905 C 463.863 387.567 463.653 387.6 462.806 387.649 C 462.757 387.651 462.708 387.654 462.659 387.657 C 461.244 387.744 460.115 388.094 458.903 389.866 C 457.649 391.699 456.293 392.49 457.753 394.298 C 459.213 396.105 460.877 395.326 459.956 397.625 C 459.035 399.925 466.559 394.509 466.552 393.982 Z " fill="rgb(134,86,43)"/><path d=" M 485.922 392.351 C 485.902 390.904 486.275 391.104 485.174 389.44 C 484.072 387.776 484.115 388.771 483.65 387.273 C 483.234 385.935 483.024 385.968 482.177 386.017 C 482.128 386.02 482.079 386.022 482.03 386.025 C 480.615 386.112 479.486 386.463 478.274 388.234 C 477.02 390.067 475.664 390.858 477.124 392.666 C 478.584 394.473 485.263 395.274 485.521 394.026 C 485.669 393.312 485.93 392.877 485.922 392.351 Z " fill="rgb(134,86,43)"/><path d=" M 497.633 393.246 C 496.27 392.636 496.605 392.379 494.611 392.669 C 492.617 392.959 493.566 393.353 491.979 393.13 C 490.561 392.93 490.509 393.138 490.22 393.939 C 490.203 393.985 490.186 394.032 490.17 394.078 C 489.692 395.418 493.537 401.792 495.807 401.235 C 498.077 400.677 496.65 399.054 498.441 400.902 C 500.232 402.749 501.094 402.81 500.711 400.344 C 500.328 397.878 501.08 398.792 502.121 397.932 C 503.162 397.073 503.943 396.913 502.376 395.296 C 500.809 393.679 500.111 395.124 499.045 394.344 C 498.434 393.898 498.13 393.468 497.633 393.246 Z " fill="rgb(134,86,43)"/><path d=" M 510.101 410.704 C 510.031 409.339 510.408 409.531 509.259 407.95 C 508.109 406.369 508.186 407.308 507.673 405.89 C 507.215 404.623 507.007 404.652 506.17 404.69 C 506.121 404.692 506.072 404.694 506.024 404.696 C 504.624 404.765 503.518 405.085 502.377 406.746 C 501.198 408.464 506.737 415.565 507.964 416.141 C 509.19 416.717 509.682 417.32 510.411 415.429 C 511.14 413.537 509.549 413.457 509.761 412.282 C 509.883 411.609 510.127 411.201 510.101 410.704 Z " fill="rgb(97,155,21)"/><g><circle vector-effect="non-scaling-stroke" cx="469.9349300562623" cy="392.4910513864244" r="6.177989085075637" fill="rgb(211,35,12)"/><circle vector-effect="non-scaling-stroke" cx="470.44976248001865" cy="393.00588381018065" r="4.6334918138067" fill="rgb(247,98,62)"/></g><path d=" M 505.33 409.633 C 504.454 407.165 507.767 410.14 508.757 408.861 C 509.287 406.93 508.229 406.921 508.033 404.819 C 507.765 401.947 506.013 402.411 503.82 403.221 C 501.627 404.03 501.132 402.277 499.923 404.246 C 499.453 405.012 506.441 412.767 505.33 409.633 Z " fill="rgb(134,86,43)"/><path d=" M 450.732 395.325 C 449.484 395.882 449.527 395.461 448.465 397.102 C 447.404 398.743 448.253 398.334 447.114 399.322 C 446.097 400.205 446.199 400.388 446.535 401.156 C 446.555 401.201 446.574 401.246 446.593 401.29 C 447.161 402.571 447.857 403.489 449.817 403.955 C 451.844 404.438 453.002 405.403 454.064 403.376 C 455.126 401.349 453.871 400.094 456.188 400.094 C 458.505 400.094 459.084 399.515 457.25 398.067 C 455.416 396.619 456.478 396.716 456.574 395.364 C 456.671 394.013 457.057 393.337 455.03 393.337 C 453.002 393.337 453.5 394.851 452.327 395.075 C 451.656 395.203 451.187 395.122 450.732 395.325 Z " fill="rgb(97,155,21)"/><path d=" M 439.897 411.653 C 439.195 412.826 438.989 412.457 439.063 414.41 C 439.138 416.363 439.597 415.54 439.234 417.003 C 438.909 418.311 439.097 418.402 439.814 418.837 C 439.856 418.863 439.897 418.888 439.939 418.913 C 441.14 419.635 442.237 419.986 444.109 419.241 C 446.045 418.471 449.139 410.281 446.806 410.15 C 444.473 410.02 445.397 409.488 444.7 408.327 C 444.002 407.166 443.929 406.391 442.271 407.556 C 440.612 408.721 441.889 409.674 441.058 410.531 C 440.582 411.022 440.153 411.226 439.897 411.653 Z " fill="rgb(97,155,21)"/><path d=" M 469.613 391.526 C 469.623 391.479 470.509 390.574 470.519 390.526 C 470.695 389.709 470.72 389.502 472.046 389.362 C 473.531 389.205 472.614 389.055 474.415 388.323 C 476.217 387.591 475.938 387.909 477.26 388.167 C 477.741 388.261 478.069 388.593 478.681 388.871 C 478.699 388.879 478.716 388.886 478.734 388.893 C 478.749 388.886 478.765 388.88 478.78 388.873 C 479.272 388.662 479.524 388.544 479.875 388.756 C 480.377 388.545 480.93 388.339 481.852 388.995 C 482.926 389.759 482.982 390.163 482.644 390.652 C 482.704 390.688 482.768 390.727 482.835 390.77 C 484.476 391.813 484.055 391.77 484.611 392.997 C 484.814 393.443 484.733 393.903 484.862 394.563 C 485.086 395.715 469.324 392.893 469.613 391.526 Z " fill="rgb(97,155,21)"/><path d=" M 481.585 393.855 C 481.595 393.808 482.481 392.904 482.491 392.856 C 482.667 392.039 482.692 391.832 484.019 391.692 C 485.503 391.535 484.586 391.385 486.388 390.652 C 488.189 389.92 487.91 390.238 489.232 390.496 C 489.714 390.59 490.042 390.922 490.653 391.2 C 490.671 391.208 490.689 391.216 490.706 391.223 C 490.722 391.216 490.737 391.209 490.753 391.203 C 491.244 390.991 491.496 390.874 491.847 391.085 C 492.349 390.874 492.902 390.668 493.824 391.324 C 494.898 392.089 494.954 392.492 494.617 392.981 C 494.677 393.017 494.74 393.057 494.807 393.099 C 496.448 394.142 496.027 394.099 496.584 395.326 C 496.786 395.773 496.706 396.233 496.834 396.892 C 497.058 398.045 481.297 395.223 481.585 393.855 Z " fill="rgb(97,155,21)"/><path d=" M 470.322 393.705 C 467.951 391.503 468.349 392.935 467.086 390.854 C 465.958 388.994 465.62 389.082 464.235 389.312 C 464.154 389.325 464.073 389.338 463.994 389.351 C 461.679 389.744 459.926 390.464 458.503 393.258 C 457.031 396.148 455.045 397.549 458.057 399.892 C 461.068 402.235 472.693 395.907 470.322 393.705 Z " fill="rgb(130,175,66)"/><path d=" M 505.646 408.326 C 506.501 406.437 507.605 405.489 506.021 404.063 C 504.437 402.637 503.055 403.624 503.541 401.358 C 504.027 399.093 503.632 398.416 501.957 399.932 C 500.281 401.449 500.59 400.429 499.405 400.076 C 498.221 399.723 497.7 399.216 497.274 401.198 C 496.849 403.18 504.819 410.153 505.646 408.326 Z " fill="rgb(130,175,66)"/><path d=" M 442.429 408.765 C 442.769 410.115 442.323 409.975 443.876 411.394 C 445.428 412.813 448.247 406.803 448.733 404.538 C 449.219 402.273 448.714 401.572 446.763 403.029 C 444.812 404.486 445.139 403.47 443.698 403.062 C 442.256 402.654 441.606 402.12 441.181 404.102 C 440.755 406.084 442.497 405.949 442.493 407.148 C 442.491 407.834 442.306 408.273 442.429 408.765 Z " fill="rgb(130,175,66)"/><g><path d=" M 506.745 410.703 C 509.551 410.703 511.829 412.779 511.829 415.337 C 511.829 417.894 509.551 419.97 506.745 419.97 C 503.94 419.97 501.661 417.894 501.661 415.337 C 501.661 412.779 503.94 410.703 506.745 410.703 Z " fill="rgb(211,35,12)"/><path d=" M 506.322 412.248 C 508.426 412.248 510.135 413.805 510.135 415.723 C 510.135 417.641 508.426 419.198 506.322 419.198 C 504.217 419.198 502.509 417.641 502.509 415.723 C 502.509 413.805 504.217 412.248 506.322 412.248 Z " fill="rgb(247,98,62)"/></g><g><path d=" M 499.924 396.545 C 502.73 396.545 505.008 398.823 505.008 401.629 C 505.008 404.435 502.73 406.713 499.924 406.713 C 497.118 406.713 494.84 404.435 494.84 401.629 C 494.84 398.823 497.118 396.545 499.924 396.545 Z " fill="rgb(211,35,12)"/><path d=" M 499.5 398.24 C 501.605 398.24 503.313 399.949 503.313 402.053 C 503.313 404.157 501.605 405.866 499.5 405.866 C 497.396 405.866 495.687 404.157 495.687 402.053 C 495.687 399.949 497.396 398.24 499.5 398.24 Z " fill="rgb(247,98,62)"/></g><g><circle vector-effect="non-scaling-stroke" cx="485.37990276895147" cy="394.67908918738857" r="6.177989085075637" fill="rgb(211,35,12)"/><circle vector-effect="non-scaling-stroke" cx="485.89473519270774" cy="395.1939216111449" r="4.6334918138067" fill="rgb(247,98,62)"/></g><g><circle vector-effect="non-scaling-stroke" cx="457.1928275682938" cy="397.124543200231" r="6.177989085075637" fill="rgb(211,35,12)"/><circle vector-effect="non-scaling-stroke" cx="457.70765999205025" cy="397.6393756239873" r="4.6334918138067" fill="rgb(247,98,62)"/></g><g><circle vector-effect="non-scaling-stroke" cx="445.9308682986248" cy="414.17836723715857" r="6.177989085075637" fill="rgb(211,35,12)"/><circle vector-effect="non-scaling-stroke" cx="446.4457007223812" cy="414.6931996609148" r="4.6334918138067" fill="rgb(247,98,62)"/></g><g><path d=" M 448.516 399.236 L 452.225 395.482 L 453.009 396.257 L 449.3 400.011 L 448.516 399.236 Z " fill="rgb(249,221,12)"/><path d=" M 453.927 393.491 L 459.197 393.222 L 459.244 394.13 L 453.974 394.398 L 453.927 393.491 Z " fill="rgb(249,221,12)"/><path d=" M 445.141 402.483 L 450.417 402.553 L 450.405 403.462 L 445.129 403.392 L 445.141 402.483 Z " fill="rgb(249,221,12)"/><path d=" M 442.768 409.081 L 448.096 404.861 L 448.66 405.573 L 443.332 409.794 L 442.768 409.081 Z " fill="rgb(249,221,12)"/><path d=" M 465.027 390.845 L 469.679 388.468 L 470.093 389.277 L 465.441 391.655 L 465.027 390.845 Z " fill="rgb(249,221,12)"/><path d=" M 472.761 387.457 L 477.985 387.365 L 478.001 388.274 L 472.777 388.366 L 472.761 387.457 Z " fill="rgb(249,221,12)"/><path d=" M 483.893 389.699 L 488.227 392.615 L 487.72 393.369 L 483.385 390.453 L 483.893 389.699 Z " fill="rgb(249,221,12)"/><path d=" M 489.84 390.187 L 494.447 392.802 L 493.999 393.592 L 489.392 390.978 L 489.84 390.187 Z " fill="rgb(249,221,12)"/><path d=" M 494.54 395.626 L 499.685 396.888 L 499.468 397.771 L 494.323 396.509 L 494.54 395.626 Z " fill="rgb(249,221,12)"/><path d=" M 501.069 401.425 L 505.914 404.094 L 505.475 404.89 L 500.63 402.221 L 501.069 401.425 Z " fill="rgb(249,221,12)"/><path d=" M 504.427 408.192 L 509.844 409.316 L 509.659 410.206 L 504.243 409.082 L 504.427 408.192 Z " fill="rgb(249,221,12)"/></g></g><path d=" M 508.551 421 L 442.621 421 C 442.005 421 441.402 420.638 441.571 419.6 C 444.106 403.181 458.184 391.075 475.308 391.075 C 492.652 391.075 506.952 403.634 509.215 420.36 C 509.287 420.861 508.809 421.004 508.551 421 Z " fill="rgb(217,172,85)"/><g><g><circle vector-effect="non-scaling-stroke" cx="469.7700227955279" cy="405.2170653611504" r="3.076928157606062" fill="rgb(0,0,0)"/><circle vector-effect="non-scaling-stroke" cx="468.77454603865544" cy="404.47498268784545" r="1.1040742212585997" fill="rgb(255,255,255)"/></g><g><circle vector-effect="non-scaling-stroke" cx="480.43067388276285" cy="405.2351649385481" r="3.076928157606062" fill="rgb(0,0,0)"/><circle vector-effect="non-scaling-stroke" cx="479.4351971258904" cy="404.4930822652431" r="1.1040742212585997" fill="rgb(255,255,255)"/></g></g><path d=" M 475.054 412.793 C 473.797 414.437 471.816 415.498 469.589 415.498 C 466.107 415.498 463.261 413.039 462.811 409.679 C 462.802 409.416 462.979 409.402 463.218 409.537 C 464.232 410.43 465.589 411.57 466.431 411.579 C 468.575 411.47 469.589 409.081 472.051 409.151 C 473.124 409.055 474.128 409.487 475.056 410.441 C 475.983 409.488 476.987 409.057 478.06 409.152 C 480.521 409.083 481.535 411.472 483.68 411.581 C 484.521 411.572 485.879 410.431 486.892 409.539 C 487.131 409.404 487.309 409.418 487.299 409.68 C 486.85 413.04 484.004 415.499 480.521 415.499 C 478.293 415.499 476.311 414.438 475.054 412.793 Z " fill="rgb(0,0,0)"/></g></svg>